<svg id="Capa_1" enable-background="new 0 0 512 512" height="512" viewBox="0 0 512 512" width="512" xmlns="http://www.w3.org/2000/svg"><g><g><circle cx="419.098" cy="170.308" fill="#ffbd86" r="39.1"/><path d="m117.227 131.305-.01-.011c13.334-70.486 75.247-123.794 149.61-123.794s136.276 53.308 149.611 123.795l-.01.011h-299.201z" fill="#ff9e8e"/><path d="m151.086 258.73c-10.887-12.718-30.472-12.932-41.55-.38-9.038 10.24-9.235 25.601-.36 35.984 20.355 23.816 46.003 42.973 75.1 55.649l19.35-23.341-19.35-38.899z" fill="#fed2a4"/><path d="m382.569 258.73c10.887-12.718 30.472-12.932 41.55-.38 9.038 10.24 9.235 25.601.36 35.984-20.355 23.816-46.003 42.973-75.1 55.649l-19.35-23.341 19.35-38.899z" fill="#ffbd86"/><path d="m307.734 365.775-40.906 17.406-35.872-17.406-41.422 17.406c4.708 12.532 12.391 23.611 22.168 32.396v26.255l27.563 31.334 27.563-31.334 27.563 31.334 27.563-31.334v-26.255c1.112-1.002 2.194-2.014 3.246-3.065 8.234-8.244 14.745-18.221 18.923-29.331z" fill="#5c586f"/><path d="m214.847 372.544-25.313 10.637c4.708 12.531 12.391 23.61 22.168 32.396v26.256l27.563 31.334.964-1.096c-15.084-28.276-24.322-62.5-25.382-99.527z" fill="#4f4c5f"/><path d="m349.38 239.934v114.197c0 10.228-1.863 20.015-5.259 29.05h-154.587c-3.396-9.036-5.259-18.822-5.259-29.05v-114.197z" fill="#ff9dd3"/><circle cx="266.827" cy="312.041" fill="#ffbd86" r="38.766"/><path d="m173.466 39.495c-4.195-17.358-19.38-30.633-37.652-31.893-20.246-1.396-37.682 11.642-43.045 29.852-3.465 11.764-11.425 21.804-22.615 26.82-2.408 1.08-4.714 1.898-6.898 2.508-9.571 2.671-12.661 14.808-5.599 21.799 15.221 15.067 40.198 28.385 72.084 4.871-5.74 11.842-10.006 24.531-12.524 37.843l.01.011h31.757c8.937-49.319 39.488-91.995 82.508-119.675-21.461 5.1-41.155 14.752-58.026 27.864z" fill="#fb8978"/><path d="m214.734 365.392c0-57.532 1.148-97.689 9.207-125.458h-39.666v114.197c0 10.228 1.863 20.015 5.259 29.05h25.843c-.421-5.855-.643-11.787-.643-17.789z" fill="#ff88ca"/><path d="m419.1 159.776c0 26.155-6.591 50.768-18.201 72.265-25.734 47.632-76.121 79.998-134.071 79.998s-108.337-32.366-134.071-79.998c-11.61-21.497-18.201-46.109-18.201-72.265 0-9.737.912-19.253 2.665-28.479l.01.01s57.339-94.172 149.598-19.814c92.259-74.358 149.598 19.814 149.598 19.814l.01-.01c1.751 9.226 2.663 18.742 2.663 28.479z" fill="#fed2a4"/><g><g><g><ellipse cx="184.273" cy="196.386" fill="#ff889e" rx="30.461" ry="24.258"/></g><g><ellipse cx="349.382" cy="196.386" fill="#ff889e" rx="30.461" ry="24.258"/></g></g></g><path d="m321.952 441.832v35.101c0 7.613-3.085 14.505-8.074 19.494s-11.87 8.074-19.484 8.074c-15.226 0-27.568-12.341-27.568-27.568v-35.101z" fill="#ffbd86"/><path d="m266.827 441.832v35.101c0 7.613-3.085 14.505-8.074 19.494s-11.88 8.074-19.494 8.074c-15.216 0-27.558-12.341-27.558-27.568v-35.101h27.127z" fill="#fed2a4"/><g fill="#ffbd86"><path d="m146.275 161.356c0-24.769 5.409-48.384 15.189-69.935-28.405 13.891-44.235 39.885-44.235 39.885l-.01-.01c-.001.005-.002.01-.003.015-.868-.062-1.749-.104-2.66-.104-21.595 0-39.1 17.506-39.1 39.1 0 21.595 17.506 39.101 39.1 39.101 2.873 0 5.526-.319 7.977-.907 2.76 8.177 6.179 16.051 10.223 23.539 19.089 35.333 51.75 62.249 90.994 73.802-47.153-33.525-77.475-85.778-77.475-144.486z"/><path d="m227.148 441.832h-15.446v35.101c0 15.226 12.341 27.567 27.557 27.567 6.76 0 12.948-2.437 17.744-6.475-12.417-15.953-22.598-34.991-29.855-56.193z"/></g></g><g><path d="m187.532 177.491c4.142 0 7.5-3.358 7.5-7.5 0-3.859 3.14-6.999 6.999-6.999s6.999 3.14 6.999 6.999c0 4.142 3.358 7.5 7.5 7.5s7.5-3.358 7.5-7.5c0-12.13-9.869-21.998-21.999-21.998s-21.998 9.868-21.998 21.998c-.001 4.142 3.356 7.5 7.499 7.5z"/><path d="m317.135 177.491c4.142 0 7.5-3.358 7.5-7.5 0-3.859 3.14-6.999 6.999-6.999s6.999 3.14 6.999 6.999c0 4.142 3.358 7.5 7.5 7.5s7.5-3.358 7.5-7.5c0-12.13-9.869-21.998-21.999-21.998s-21.998 9.868-21.998 21.998c-.001 4.142 3.357 7.5 7.499 7.5z"/><path d="m287.866 191.864c2.721-3.123 2.396-7.86-.727-10.582s-7.86-2.396-10.582.727c-5.143 5.901-14.293 5.918-19.451 0-2.722-3.123-7.459-3.448-10.581-.727-3.123 2.721-3.448 7.459-.727 10.582 11.109 12.748 30.926 12.785 42.068 0z"/><path d="m114.928 110.119c-1.461 4.485-2.731 9.065-3.802 13.729-24.096 1.766-43.165 21.921-43.165 46.46 0 26.726 22.608 48.231 49.605 46.492 3.522 9.247 7.406 17.063 12.011 24.78-9.849.162-19.139 4.418-25.66 11.807-11.469 12.995-11.658 32.693-.438 45.82 6.995 8.184 14.736 15.959 23.008 23.109 3.134 2.708 7.87 2.365 10.578-.769 2.709-3.134 2.365-7.87-.769-10.579-7.703-6.659-14.908-13.895-21.414-21.507-6.393-7.481-6.272-18.722.282-26.148 7.915-8.969 22.31-8.813 30.127.18 9.258 10.848 19.859 20.336 31.491 28.269v46.397c-6.286-3.192-12.44-6.736-18.39-10.595-3.476-2.253-8.12-1.263-10.374 2.212-2.253 3.475-1.263 8.12 2.212 10.374 8.522 5.526 17.439 10.451 26.566 14.684.081 10.651 1.997 21.073 5.723 30.987 4.655 12.389 12.12 23.737 21.688 33.013v58.098c0 19.336 15.727 35.067 35.058 35.067 10.66 0 20.747-4.744 27.58-13.417 6.426 8.161 16.385 13.417 27.555 13.417 19.37 0 35.058-15.683 35.058-35.067 0-19.414 0-38.714 0-58.089 9.001-8.65 16.846-20.149 21.689-33.024 3.727-9.915 5.643-20.34 5.723-30.994 27.953-12.965 53.224-32.111 73.316-55.619 11.219-13.126 11.03-32.825-.439-45.819-6.521-7.388-15.846-11.658-25.659-11.808 4.598-7.704 8.483-15.518 12.011-24.779 26.99 1.739 49.605-19.76 49.605-46.492 0-24.539-19.071-44.695-43.168-46.46-8.686-37.877-30.757-71.066-62.65-93.956-3.365-2.415-8.051-1.645-10.466 1.72s-1.645 8.051 1.72 10.466c21.013 15.081 37.325 35.085 47.69 58.066-37.396-31.977-83.507-34.829-131.996 1.832-44.215-33.438-91.081-36.8-131.956-1.898 22.938-50.742 74.146-85.078 131.956-85.078 20.418 0 40.156 4.166 58.668 12.382 3.786 1.68 8.218-.026 9.897-3.812 1.681-3.786-.026-8.218-3.812-9.898-20.44-9.072-42.226-13.672-64.753-13.672-32.991 0-63.998 10.109-89.765 27.61-7.658-15.447-23.2-26.281-40.732-27.49-23.312-1.606-44.177 12.875-50.757 35.217-3.414 11.587-11.473 20.629-24.335 24.223-15.102 4.214-20.03 23.295-8.859 34.352 17.693 17.515 39.19 24.828 62.542 16.207zm147.198 7.214c2.747 2.214 6.666 2.214 9.413 0 30.613-24.673 65.157-36.33 99.856-17.865 21.318 11.359 34.735 29.927 37.934 34.681 21.794 121.67-110.441 216.37-221.014 147.262-4.008-3.025-14.667-8.556-31.906-27.989-28.89-34.061-39.489-78.138-32.073-119.279 31.831-47.446 84.837-59.476 137.79-16.81zm-70.346 232.65v-49.147c8.805 4.693 18.57 8.782 28.803 11.873.36 25.203 20.962 45.599 46.249 45.599 25.288 0 45.89-20.395 46.249-45.599 9.592-2.897 19.28-6.8 28.803-11.873v53.295c0 7.358-1.055 14.586-3.141 21.55h-143.823c-3.958-13.217-3.007-23.328-3.14-25.698zm105.998-33.458c-2.181 15.124-15.228 26.783-30.946 26.783-15.719 0-28.765-11.659-30.945-26.783 20.33 3.999 41.7 3.984 61.891 0zm-185.104-114.672c-16.549-.98-29.713-14.754-29.713-31.545 0-15.303 10.934-28.1 25.4-30.989-2.561 19.785-1.378 41.638 4.313 62.534zm126.59 295.147c-11.06 0-20.058-9.002-20.058-20.067v-27.6h40.125v27.6c.001 11.092-8.973 20.067-20.067 20.067zm75.192-20.067c0 11.103-8.987 20.067-20.058 20.067-11.065 0-20.067-9.002-20.067-20.067v-27.6h40.125zm5.443-69.724c-2.727 2.727-5.442 4.231-5.442 8.368v18.755h-40.125v-25.076c0-4.142-3.357-7.5-7.5-7.5-4.142 0-7.5 3.358-7.5 7.5v25.076h-40.125v-18.755c0-2.128-.904-4.156-2.487-5.579-6.184-5.557-11.414-12.116-15.446-19.317h131.112c-3.38 6.035-7.601 11.636-12.487 16.528zm98.601-143.896c6.554 7.426 6.676 18.667.282 26.148-17.172 20.091-38.403 36.768-61.898 48.699v-46.398c11.633-7.935 22.236-17.424 31.494-28.274 7.943-9.131 22.09-9.274 30.122-.175zm32.202-93.004c0 16.791-13.164 30.565-29.713 31.545 5.944-21.795 5.394-38.987 5.615-42.077 0-6.921-.501-14.202-1.301-20.457 14.465 2.889 25.399 15.686 25.399 30.989zm-385.424-96.302c18.041-5.038 29.888-18.128 34.69-34.432 4.577-15.54 19.107-25.607 35.334-24.489 13.151.907 24.7 9.617 29.479 21.749-16.953 14.058-31.001 31.604-41.002 51.671-21.556 15.142-42.017 13.379-60.841-5.254-2.992-2.961-1.666-8.127 2.34-9.245z"/></g></g></svg>